<svg id="Layer_1" data-name="Layer 1" xmlns="http://www.w3.org/2000/svg" viewBox="0 0 304 60"><title>img_logo</title><rect x="2" y="0.38" width="299.99" height="1.99" fill="#373435"/><rect x="2" y="57.63" width="299.99" height="1.99" fill="#373435"/><polygon points="22.63 29.98 10.51 53.48 2 53.48 14.12 29.98 2 6.52 10.51 6.52 22.63 29.98" fill="#8fd2f0" fill-rule="evenodd"/><polygon points="25.91 27.6 34.42 27.6 53.15 27.6 53.15 19.99 30.49 19.99 23.54 6.52 15.02 6.52 25.91 27.6" fill="#37419d" fill-rule="evenodd"/><polygon points="30.32 40.34 53.15 40.34 53.15 32.73 25.91 32.73 25.91 32.73 25.73 32.73 15.02 53.48 23.54 53.48 30.32 40.34" fill="#0384ce" fill-rule="evenodd"/><path d="M60.78,50.1V44.27H62.9a4.33,4.33,0,0,1,1.13.12,1.34,1.34,0,0,1,.74.55,1.71,1.71,0,0,1,.3,1q0,1.78-2.1,1.78H61.52V50.1ZM61.52,47H63Q64.3,47,64.3,46a1.11,1.11,0,0,0-.15-.62.72.72,0,0,0-.4-.32A2.79,2.79,0,0,0,63,45H61.52ZM73.76,50.1V44.27h.74v2.39h2.92V44.27h.74V50.1h-.74V47.35H74.51V50.1Zm12.75,0,2.16-5.83h.8l2.3,5.83h-.85l-.65-1.77H87.92L87.3,50.1Zm1.62-2.4H90l-.59-1.61c-.18-.49-.31-.89-.4-1.21a7.56,7.56,0,0,1-.3,1.11Zm12,2.4V44.27h2.49a4,4,0,0,1,1,.1,1.29,1.29,0,0,1,.7.51,1.59,1.59,0,0,1,.3,1q0,1.36-1.58,1.59a2.57,2.57,0,0,1,1.06,1.07l1,1.59h-.94l-.74-1.22a6.77,6.77,0,0,0-.65-.94,1.26,1.26,0,0,0-.44-.35,1.56,1.56,0,0,0-.58-.09h-.86V50.1Zm.74-3.26h1.6q1.38,0,1.38-1c0-.63-.4-.95-1.2-.95h-1.78Zm12.61,3.26V44.27h1.12l1.33,4.13.27.87c.07-.25.17-.56.3-.94l1.35-4.06h1V50.1h-.72V45.22l-1.63,4.88h-.67l-1.62-5v5Zm13.67,0,2.16-5.83h.8l2.3,5.83h-.85l-.65-1.77h-2.35l-.62,1.77Zm1.62-2.4h1.9l-.59-1.61c-.18-.49-.31-.89-.4-1.21a7.27,7.27,0,0,1-.3,1.11Zm16,.35.74.2a2.24,2.24,0,0,1-2.32,1.95,2.3,2.3,0,0,1-2-.88,3.63,3.63,0,0,1-.64-2.17,3,3,0,0,1,.77-2.22,2.6,2.6,0,0,1,1.87-.75,2.1,2.1,0,0,1,2.22,1.7l-.73.18a1.49,1.49,0,0,0-1.5-1.21,1.58,1.58,0,0,0-1.43.66,2.93,2.93,0,0,0-.43,1.65,2.68,2.68,0,0,0,.52,1.83,1.67,1.67,0,0,0,1.29.57A1.59,1.59,0,0,0,144.7,48.05Zm9.4,2V44.27h4.06V45h-3.31v1.78h3.1v.68h-3.1v2h3.44v.69Zm16.62-5.83h.74v3.37a5.06,5.06,0,0,1-.15,1.28,1.61,1.61,0,0,1-.66.92,2.39,2.39,0,0,1-1.38.36,2.14,2.14,0,0,1-1.7-.6,3,3,0,0,1-.52-2V44.27h.74v3.36a4.75,4.75,0,0,0,.09,1,1.08,1.08,0,0,0,.42.65,1.48,1.48,0,0,0,.9.25,1.52,1.52,0,0,0,1.16-.39,2.25,2.25,0,0,0,.35-1.48Zm11.14,5.83V45H180v-.69h4.45V45H182.6V50.1Zm11.21,0V44.27h.74V50.1Zm13.79-2,.74.2a2.24,2.24,0,0,1-2.33,1.95,2.3,2.3,0,0,1-2-.88,3.63,3.63,0,0,1-.64-2.17,3,3,0,0,1,.77-2.22,2.61,2.61,0,0,1,1.88-.75,2.11,2.11,0,0,1,2.22,1.7l-.73.18a1.49,1.49,0,0,0-1.5-1.21,1.59,1.59,0,0,0-1.43.66,3,3,0,0,0-.43,1.65,2.68,2.68,0,0,0,.52,1.83,1.68,1.68,0,0,0,1.29.57A1.59,1.59,0,0,0,206.86,48.05Zm8.77,2,2.16-5.83h.8l2.29,5.83H220l-.65-1.77H217l-.62,1.77Zm1.62-2.4h1.9l-.59-1.61c-.18-.49-.31-.89-.4-1.21a7.57,7.57,0,0,1-.3,1.11Zm11.93,2.4V44.27h.74v5.14h2.76v.69ZM241,48.22l.7-.07a1.4,1.4,0,0,0,.54,1,1.88,1.88,0,0,0,1.12.33,1.59,1.59,0,0,0,1-.29.88.88,0,0,0,.35-.7.73.73,0,0,0-.32-.64,4.71,4.71,0,0,0-1.39-.48,2.92,2.92,0,0,1-1.45-.67,1.48,1.48,0,0,1,.2-2.15,2.35,2.35,0,0,1,1.4-.41,2.19,2.19,0,0,1,1.56.5,1.73,1.73,0,0,1,.55,1.25l-.71.06c-.08-.75-.53-1.12-1.37-1.12s-1.29.29-1.29.88a.64.64,0,0,0,.27.55,3.21,3.21,0,0,0,1.07.39,8.7,8.7,0,0,1,1.21.35,1.66,1.66,0,0,1,.71.54,1.44,1.44,0,0,1,.28.9,1.52,1.52,0,0,1-.61,1.28,2.36,2.36,0,0,1-1.46.46,2.49,2.49,0,0,1-1.78-.56A1.94,1.94,0,0,1,241,48.22Zm32,1.87V44.27h.74v5.14h2.76v.69Zm12.09,0V44.27h.74v5.14h2.76v.69Zm16.12-2,.74.2a2.23,2.23,0,0,1-2.32,1.95,2.31,2.31,0,0,1-2-.88,3.64,3.64,0,0,1-.64-2.17,3,3,0,0,1,.77-2.22,2.6,2.6,0,0,1,1.88-.75,2.1,2.1,0,0,1,2.22,1.7l-.73.18a1.49,1.49,0,0,0-1.5-1.21,1.58,1.58,0,0,0-1.43.66,2.93,2.93,0,0,0-.43,1.65,2.69,2.69,0,0,0,.52,1.83,1.68,1.68,0,0,0,1.3.57,1.59,1.59,0,0,0,1.64-1.48" fill="#373435" fill-rule="evenodd"/><path d="M84.86,16.46a14.73,14.73,0,0,0-4.15-2.24,14.12,14.12,0,0,0-4.6-.75,10.79,10.79,0,0,0-7.58,2.68,9,9,0,0,0-2.93,6.93,8.92,8.92,0,0,0,2.85,6.79,10.07,10.07,0,0,0,7.18,2.67,14.48,14.48,0,0,0,4.81-.8,15.72,15.72,0,0,0,4.38-2.41V34a14.16,14.16,0,0,1-4.06,1.79,18.13,18.13,0,0,1-4.76.59,18.47,18.47,0,0,1-6-1,14.35,14.35,0,0,1-4.87-2.82,12.82,12.82,0,0,1-3.2-14.82,12.73,12.73,0,0,1,3.24-4.32A14.5,14.5,0,0,1,70,10.64a17.64,17.64,0,0,1,5.93-1,17.25,17.25,0,0,1,4.78.65,17.72,17.72,0,0,1,4.41,2Zm12.89,9.25h7.94l-2.92-5.8c-.17-.37-.35-.79-.52-1.27s-.37-1-.54-1.61c-.15.56-.32,1.07-.5,1.56s-.35.92-.53,1.33Zm12.79,10-3.22-6.55H96l-3.3,6.55H87.88L101.66,9.28l13.77,26.44Zm8.7,0V10.27h4.62V32h10.35v3.7Zm19.94,0V10.27h4.62V35.71Zm12.41,0V10.27h15.89V13.8H156.21v6.33h11.27v3.63H156.21v12ZM198,23a8.79,8.79,0,0,0-.79-3.66,9.52,9.52,0,0,0-2.26-3.09,10.06,10.06,0,0,0-3.33-2.06,11.49,11.49,0,0,0-8,0,10.19,10.19,0,0,0-3.37,2.07A9.16,9.16,0,0,0,178,19.37a8.89,8.89,0,0,0-.78,3.68,8.73,8.73,0,0,0,.78,3.65,9.42,9.42,0,0,0,2.26,3.07,10.19,10.19,0,0,0,3.37,2.07,11.24,11.24,0,0,0,4,.71,11.06,11.06,0,0,0,4-.71,10.51,10.51,0,0,0,3.37-2.07,9.52,9.52,0,0,0,2.26-3.08A8.75,8.75,0,0,0,198,23Zm4.82,0a11.88,11.88,0,0,1-1.13,5.12,13.08,13.08,0,0,1-3.32,4.31,15.73,15.73,0,0,1-5,2.9,16.8,16.8,0,0,1-5.79,1,17,17,0,0,1-5.86-1,15.45,15.45,0,0,1-4.92-2.89,12.94,12.94,0,0,1-3.3-4.29,12.28,12.28,0,0,1,0-10.28,13.06,13.06,0,0,1,3.3-4.33,15.34,15.34,0,0,1,4.94-2.88,17.68,17.68,0,0,1,11.67,0,15.28,15.28,0,0,1,4.93,2.88,13.49,13.49,0,0,1,3.32,4.35A11.92,11.92,0,0,1,202.82,23Zm11.06-1.92h.84q3.67,0,4.88-.76a3,3,0,0,0,1.21-2.71,3.29,3.29,0,0,0-1.29-3q-1.29-.86-4.79-.86h-.84v7.29Zm-.28,3.2V35.71h-4.34V10.27h6.45a22.59,22.59,0,0,1,4.41.33,7.28,7.28,0,0,1,2.67,1.09,6.29,6.29,0,0,1,2,2.38,7.16,7.16,0,0,1,.72,3.2,6.65,6.65,0,0,1-1.65,4.78A7.63,7.63,0,0,1,219,24.14l9.79,11.58h-5.22l-9.48-11.39h-.52Zm19.1,11.39V9.28l18.09,15.54c.49.44,1,.91,1.5,1.41s1,1.06,1.59,1.68V10.27h4.26V36.71L239.7,20.88c-.49-.43-1-.88-1.43-1.36A19.74,19.74,0,0,1,237,18V35.71H232.7Zm33.2,0V10.27h4.62V35.71Zm18.43-10h7.93l-2.92-5.8c-.17-.37-.35-.79-.53-1.27s-.36-1-.54-1.61c-.15.56-.32,1.07-.5,1.56s-.35.92-.53,1.33Zm12.79,10-3.23-6.55H282.61l-3.3,6.55h-4.86L288.23,9.28,302,35.71Z" fill="#3156a3" fill-rule="evenodd"/></svg>