<svg width="56" height="56" viewBox="0 0 56 56" fill="none" xmlns="http://www.w3.org/2000/svg">
<circle cx="28" cy="28" r="28" fill="#2196F3"/>
<path d="M24.625 29.125C23.875 29.125 23.5 28.75 23.5 28C23.5 27.25 23.875 26.875 24.625 26.875C25.375 26.875 25.75 27.25 25.75 28C25.75 28.75 25.375 29.125 24.625 29.125ZM28 29.125C27.25 29.125 26.875 28.75 26.875 28C26.875 27.25 27.25 26.875 28 26.875C28.75 26.875 29.125 27.25 29.125 28C29.125 28.75 28.75 29.125 28 29.125ZM31.375 29.125C30.625 29.125 30.25 28.75 30.25 28C30.25 27.25 30.625 26.875 31.375 26.875C32.125 26.875 32.5 27.25 32.5 28C32.5 28.75 32.125 29.125 31.375 29.125ZM24.6719 34.0469C24.4531 34.2656 24.1875 34.375 23.875 34.375C23.5625 34.375 23.2969 34.2656 23.0781 34.0469L17.8281 28.7969C17.6094 28.5781 17.5 28.3125 17.5 28C17.5 27.6875 17.6094 27.4219 17.8281 27.2031L23.0781 21.9531C23.2969 21.7344 23.5625 21.625 23.875 21.625C24.1875 21.625 24.4531 21.7344 24.6719 21.9531C24.8906 22.1719 25 22.4375 25 22.75C25 23.0625 24.8906 23.3281 24.6719 23.5469L20.2188 28L24.6719 32.4531C24.8906 32.6719 25 32.9375 25 33.25C25 33.5625 24.8906 33.8281 24.6719 34.0469ZM32.9219 34.0469C32.7031 34.2656 32.4375 34.375 32.125 34.375C31.8125 34.375 31.5469 34.2656 31.3281 34.0469C31.1094 33.8281 31 33.5625 31 33.25C31 32.9375 31.1094 32.6719 31.3281 32.4531L35.7812 28L31.3281 23.5469C31.1094 23.3281 31 23.0625 31 22.75C31 22.4375 31.1094 22.1719 31.3281 21.9531C31.5469 21.7344 31.8125 21.625 32.125 21.625C32.4375 21.625 32.7031 21.7344 32.9219 21.9531L38.1719 27.2031C38.3906 27.4219 38.5 27.6875 38.5 28C38.5 28.3125 38.3906 28.5781 38.1719 28.7969L32.9219 34.0469Z" fill="white"/>
</svg>
