<svg width="22" height="14" viewBox="0 0 22 14" fill="none" xmlns="http://www.w3.org/2000/svg">
<path d="M7.625 8.125C6.875 8.125 6.5 7.75 6.5 7C6.5 6.25 6.875 5.875 7.625 5.875C8.375 5.875 8.75 6.25 8.75 7C8.75 7.75 8.375 8.125 7.625 8.125ZM11 8.125C10.25 8.125 9.875 7.75 9.875 7C9.875 6.25 10.25 5.875 11 5.875C11.75 5.875 12.125 6.25 12.125 7C12.125 7.75 11.75 8.125 11 8.125ZM14.375 8.125C13.625 8.125 13.25 7.75 13.25 7C13.25 6.25 13.625 5.875 14.375 5.875C15.125 5.875 15.5 6.25 15.5 7C15.5 7.75 15.125 8.125 14.375 8.125ZM7.67188 13.0469C7.45312 13.2656 7.1875 13.375 6.875 13.375C6.5625 13.375 6.29688 13.2656 6.07812 13.0469L0.828125 7.79688C0.609375 7.57812 0.5 7.3125 0.5 7C0.5 6.6875 0.609375 6.42188 0.828125 6.20312L6.07812 0.953125C6.29688 0.734375 6.5625 0.625 6.875 0.625C7.1875 0.625 7.45312 0.734375 7.67188 0.953125C7.89062 1.17188 8 1.4375 8 1.75C8 2.0625 7.89062 2.32812 7.67188 2.54688L3.21875 7L7.67188 11.4531C7.89062 11.6719 8 11.9375 8 12.25C8 12.5625 7.89062 12.8281 7.67188 13.0469ZM15.9219 13.0469C15.7031 13.2656 15.4375 13.375 15.125 13.375C14.8125 13.375 14.5469 13.2656 14.3281 13.0469C14.1094 12.8281 14 12.5625 14 12.25C14 11.9375 14.1094 11.6719 14.3281 11.4531L18.7812 7L14.3281 2.54688C14.1094 2.32812 14 2.0625 14 1.75C14 1.4375 14.1094 1.17188 14.3281 0.953125C14.5469 0.734375 14.8125 0.625 15.125 0.625C15.4375 0.625 15.7031 0.734375 15.9219 0.953125L21.1719 6.20312C21.3906 6.42188 21.5 6.6875 21.5 7C21.5 7.3125 21.3906 7.57812 21.1719 7.79688L15.9219 13.0469Z" fill="white"/>
</svg>
