<svg width="151" height="41" viewBox="0 0 151 41" fill="none" xmlns="http://www.w3.org/2000/svg">
<path d="M91.3399 22.3453H99.3462V24.8807H91.3399V22.3453Z" fill="#E1B12C"/>
<path d="M103.029 27.6962V13.7786H100.681V11.4568H115.079V17.0478H112.783V13.7786H105.831V19.2763H111.823V21.5981H105.831V27.6962H108.207V30.018H100.681V27.6962H103.029Z" fill="#E1B12C"/>
<path d="M118.415 27.6962V13.7786H116.013V11.4568H131.438V17.0478H129.143V13.7786H121.217V19.3029H128.115V21.6248H121.217V27.6962H129.143V24.3202H131.438V30.018H116.013V27.6962H118.415Z" fill="#E1B12C"/>
<path d="M135.214 27.6962V13.7786H132.692V11.4568H139.871C141.855 11.4568 143.381 11.5591 144.448 11.7637C145.525 11.9683 146.566 12.4309 147.571 13.1514C148.576 13.872 149.377 14.8639 149.973 16.1271C150.578 17.3814 150.88 18.8137 150.88 20.4238C150.88 22.2564 150.591 23.8487 150.013 25.2009C149.434 26.5531 148.674 27.5628 147.731 28.2299C146.797 28.8971 145.68 29.3642 144.382 29.631C143.092 29.889 141.446 30.018 139.444 30.018H132.692V27.6962H135.214ZM138.017 27.6962H139.484C141.121 27.6962 142.416 27.5939 143.367 27.3893C144.328 27.1847 145.138 26.8377 145.796 26.3485C146.454 25.8503 146.988 25.103 147.397 24.1067C147.807 23.1104 148.011 21.9361 148.011 20.5839C148.011 18.9738 147.673 17.6083 146.997 16.4874C146.33 15.3665 145.471 14.6371 144.422 14.299C143.381 13.9521 141.775 13.7786 139.605 13.7786H138.017V27.6962Z" fill="#E1B12C"/>
<path d="M0.880005 40.8454V35.8148L22.4191 5.66001H6.83579V12.7434H1.863V0.629395H30.1096V5.08178L8.19464 35.8148H25.8018V28.0376H30.7746V40.8454H0.880005Z" fill="#E1B12C"/>
<path d="M41.0782 29.8312V27.5094L51.0194 13.5918H43.8271V16.861H41.5319V11.27H54.5688V13.3249L44.4542 27.5094H52.5806V23.9199H54.8758V29.8312H41.0782Z" fill="white"/>
<path d="M70.448 24.0133H59.5861C59.7462 25.2054 60.2177 26.1706 61.0006 26.9089C61.7834 27.6473 62.7842 28.0165 64.0029 28.0165C65.7732 28.0165 67.1743 27.3048 68.2062 25.8814L70.448 26.8689C69.7185 27.9987 68.7711 28.8393 67.6057 29.3909C66.4404 29.9335 65.2217 30.2048 63.9495 30.2048C61.9747 30.2048 60.2844 29.591 58.8789 28.3634C57.4822 27.1269 56.7839 25.4633 56.7839 23.3728C56.7839 21.389 57.4645 19.7566 58.8255 18.4756C60.1955 17.1946 61.7656 16.5541 63.5359 16.5541C65.2706 16.5541 66.8407 17.1813 68.2463 18.4356C69.6607 19.681 70.3946 21.5403 70.448 24.0133ZM67.8326 22.1719C67.6547 21.2645 67.1832 20.4461 66.4181 19.7166C65.6531 18.9782 64.7146 18.6091 63.6026 18.6091C62.5885 18.6091 61.7211 18.9427 61.0006 19.6099C60.28 20.2681 59.8396 21.1222 59.6795 22.1719H67.8326Z" fill="white"/>
<path d="M88.4755 27.5761V29.8312H83.6183V27.9364C82.3551 29.3419 80.8161 30.0447 79.0014 30.0447C77.32 30.0447 75.8433 29.4709 74.5712 28.3234C73.2991 27.1758 72.6631 25.5434 72.6631 23.4262C72.6631 21.3001 73.3169 19.6232 74.6246 18.3956C75.9323 17.1679 77.409 16.5541 79.0547 16.5541C80.7983 16.5541 82.3195 17.248 83.6183 18.6358V13.5251H81.1364V11.27H86.1537V27.5761H88.4755ZM75.3718 23.3595C75.3718 24.7828 75.7722 25.877 76.5728 26.642C77.3823 27.4071 78.3475 27.7896 79.4684 27.7896C80.5537 27.7896 81.5145 27.3893 82.3507 26.5887C83.1958 25.7791 83.6183 24.6627 83.6183 23.2394C83.6183 21.8071 83.1869 20.7263 82.324 19.9968C81.47 19.2674 80.5092 18.9026 79.4417 18.9026C78.2941 18.9026 77.3289 19.3341 76.5461 20.197C75.7633 21.051 75.3718 22.1051 75.3718 23.3595Z" fill="white"/>
</svg>
