<svg width="151" height="42" viewBox="0 0 151 42" fill="none" xmlns="http://www.w3.org/2000/svg">
<g clip-path="url(#clip0)">
<path d="M91.3399 22.8453H99.3462V25.3807H91.3399V22.8453Z" fill="#2196F3"/>
<path d="M103.029 28.1962V14.2786H100.681V11.9568H115.079V17.5478H112.783V14.2786H105.831V19.7763H111.823V22.0981H105.831V28.1962H108.207V30.518H100.681V28.1962H103.029Z" fill="#2196F3"/>
<path d="M118.415 28.1962V14.2786H116.013V11.9568H131.438V17.5478H129.143V14.2786H121.217V19.8029H128.115V22.1248H121.217V28.1962H129.143V24.8202H131.438V30.518H116.013V28.1962H118.415Z" fill="#2196F3"/>
<path d="M135.214 28.1962V14.2786H132.692V11.9568H139.871C141.855 11.9568 143.381 12.0591 144.448 12.2637C145.525 12.4683 146.566 12.9309 147.571 13.6514C148.576 14.372 149.377 15.3639 149.973 16.6271C150.578 17.8814 150.88 19.3137 150.88 20.9238C150.88 22.7564 150.591 24.3487 150.013 25.7009C149.434 27.0531 148.674 28.0628 147.731 28.7299C146.797 29.3971 145.68 29.8642 144.382 30.131C143.092 30.389 141.446 30.518 139.444 30.518H132.692V28.1962H135.214ZM138.017 28.1962H139.484C141.121 28.1962 142.416 28.0939 143.367 27.8893C144.328 27.6847 145.138 27.3377 145.796 26.8485C146.454 26.3503 146.988 25.603 147.397 24.6067C147.807 23.6104 148.011 22.4361 148.011 21.0839C148.011 19.4738 147.673 18.1083 146.997 16.9874C146.33 15.8665 145.471 15.1371 144.422 14.799C143.381 14.4521 141.775 14.2786 139.605 14.2786H138.017V28.1962Z" fill="#2196F3"/>
<path d="M0.880005 41.3454V36.3148L22.4191 6.16001H6.83579V13.2434H1.863V1.12939H30.1096V5.58178L8.19464 36.3148H25.8018V28.5376H30.7746V41.3454H0.880005Z" fill="#2196F3"/>
<path d="M41.0782 30.3312V28.0094L51.0194 14.0918H43.8271V17.361H41.5319V11.77H54.5688V13.8249L44.4542 28.0094H52.5806V24.4199H54.8758V30.3312H41.0782Z" fill="#5B5963"/>
<path d="M70.448 24.5133H59.5861C59.7462 25.7054 60.2177 26.6706 61.0006 27.4089C61.7834 28.1473 62.7842 28.5165 64.0029 28.5165C65.7732 28.5165 67.1743 27.8048 68.2062 26.3814L70.448 27.3689C69.7185 28.4987 68.7711 29.3393 67.6057 29.8909C66.4404 30.4335 65.2217 30.7048 63.9495 30.7048C61.9747 30.7048 60.2844 30.091 58.8789 28.8634C57.4822 27.6269 56.7839 25.9633 56.7839 23.8728C56.7839 21.889 57.4645 20.2566 58.8255 18.9756C60.1955 17.6946 61.7656 17.0541 63.5359 17.0541C65.2706 17.0541 66.8407 17.6813 68.2463 18.9356C69.6607 20.181 70.3946 22.0403 70.448 24.5133ZM67.8326 22.6719C67.6547 21.7645 67.1832 20.9461 66.4181 20.2166C65.6531 19.4782 64.7146 19.1091 63.6026 19.1091C62.5885 19.1091 61.7211 19.4427 61.0006 20.1099C60.28 20.7681 59.8396 21.6222 59.6795 22.6719H67.8326Z" fill="#5B5963"/>
<path d="M88.4755 28.0761V30.3312H83.6183V28.4364C82.3551 29.8419 80.8161 30.5447 79.0014 30.5447C77.32 30.5447 75.8433 29.9709 74.5712 28.8234C73.2991 27.6758 72.6631 26.0434 72.6631 23.9262C72.6631 21.8001 73.3169 20.1232 74.6246 18.8956C75.9323 17.6679 77.409 17.0541 79.0547 17.0541C80.7983 17.0541 82.3195 17.748 83.6183 19.1358V14.0251H81.1364V11.77H86.1537V28.0761H88.4755ZM75.3718 23.8595C75.3718 25.2828 75.7722 26.377 76.5728 27.142C77.3823 27.9071 78.3475 28.2896 79.4684 28.2896C80.5537 28.2896 81.5145 27.8893 82.3507 27.0887C83.1958 26.2791 83.6183 25.1627 83.6183 23.7394C83.6183 22.3071 83.1869 21.2263 82.324 20.4968C81.47 19.7674 80.5092 19.4026 79.4417 19.4026C78.2941 19.4026 77.3289 19.8341 76.5461 20.697C75.7633 21.551 75.3718 22.6051 75.3718 23.8595Z" fill="#5B5963"/>
</g>
<defs>
<clipPath id="clip0">
<rect width="151" height="41" fill="white" transform="translate(0 0.5)"/>
</clipPath>
</defs>
</svg>
