<svg width="150" height="48" viewBox="0 0 150 48" fill="none" xmlns="http://www.w3.org/2000/svg">
<g clip-path="url(#clip0)">
<path d="M20.2673 -0.597145C20.5353 -0.597145 20.7596 -0.497435 20.9403 -0.298014C21.1211 -0.0985925 21.2114 0.113293 21.2114 0.337641V5.9931C21.2114 6.21745 21.1896 6.41999 21.146 6.60071C21.0961 6.78144 21.0494 6.93724 21.0058 7.06811C20.9621 7.24883 20.9185 7.40774 20.8749 7.54484L7.61025 40.3839H19.9962C20.2642 40.3839 20.501 40.4743 20.7066 40.655C20.9061 40.8357 21.0058 41.0601 21.0058 41.328V46.647C21.0058 46.9586 20.9061 47.2047 20.7066 47.3854C20.501 47.5662 20.2642 47.6565 19.9962 47.6565H1.29108C0.661651 47.6565 0.346939 47.3418 0.346939 46.7124V41.0569C0.346939 40.789 0.390563 40.4774 0.47781 40.1222C0.521433 39.9414 0.568172 39.8043 0.618028 39.7108L13.9388 6.66615H1.55282C0.929624 6.66615 0.618028 6.35143 0.618028 5.72201V0.337641C0.618028 -0.28555 0.929624 -0.597145 1.55282 -0.597145H20.2673Z" fill="#4D4D4D"/>
<path d="M46.1344 11.3673H31.6679V15.7777H39.3354L30.476 35.692H44.9473V31.2623H37.2798L46.1344 11.3673ZM33.3278 14.1322V13.0127H43.5721L34.7368 32.927H43.2874V34.0272H33.0238L41.8784 14.1322H33.3278ZM63.5733 11.3673H49.1888V35.692H63.5733V31.2623H53.6185V25.7324H61.3536V21.3075H53.6185V15.7777H63.5733V11.3673ZM50.8536 34.0272V13.0127H61.9134V14.1322H51.9538V22.9675H59.7082V24.0725H51.9538V32.927H61.9134V34.0272H50.8536ZM76.5873 18.5426V28.4973C76.5873 29.2662 76.3155 29.9176 75.7718 30.4516C75.2282 30.9921 74.5784 31.2623 73.8224 31.2623H71.0574V15.7777H73.8224C74.5784 15.7777 75.2282 16.0479 75.7718 16.5883C76.3155 17.132 76.5873 17.7834 76.5873 18.5426ZM73.8224 14.1322H69.3927V32.927H73.8224C75.0448 32.927 76.0855 32.4976 76.9444 31.6387C77.813 30.7669 78.2472 29.7198 78.2472 28.4973V18.5426C78.2472 17.333 77.813 16.2924 76.9444 15.4206C76.0855 14.5617 75.0448 14.1322 73.8224 14.1322ZM79.3523 18.5426V28.4973C79.3523 30.0254 78.8086 31.3314 77.7213 32.4155C76.6468 33.49 75.3472 34.0272 73.8224 34.0272H68.2925V13.0127H73.8224C75.3472 13.0127 76.6468 13.5548 77.7213 14.6389C78.8086 15.7262 79.3523 17.0274 79.3523 18.5426ZM73.8224 11.3673H66.6277V35.692H73.8224C75.8008 35.692 77.4913 34.9907 78.8938 33.5881C80.3061 32.1759 81.0122 30.479 81.0122 28.4973V18.5426C81.0122 16.561 80.3061 14.8705 78.8938 13.4711C77.4913 12.0686 75.8008 11.3673 73.8224 11.3673ZM84.0666 21.3751V25.8H97.3316V21.3751H84.0666ZM85.8327 24.14V23.035H95.5703V24.14H85.8327ZM114.775 11.3673H100.386V35.692H104.816V25.7324H112.551V21.3075H104.816V15.7777H114.775V11.3673ZM102.051 34.0465V13.0127H113.111V14.1322H103.151V22.9675H110.905V24.0725H103.151V34.0465H102.051ZM132.214 11.3673H117.825V35.692H132.214V31.2623H122.255V25.7324H129.99V21.3075H122.255V15.7777H132.214V11.3673ZM119.49 34.0272V13.0127H130.549V14.1322H120.59V22.9675H128.344V24.0725H120.59V32.927H130.549V34.0272H119.49ZM145.223 18.5426V28.4973C145.223 29.2662 144.952 29.9176 144.408 30.4516C143.868 30.9921 143.218 31.2623 142.459 31.2623H139.694V15.7777H142.459C143.218 15.7777 143.868 16.0479 144.408 16.5883C144.952 17.132 145.223 17.7834 145.223 18.5426ZM142.459 14.1322H138.029V32.927H142.459C143.681 32.927 144.722 32.4976 145.581 31.6387C146.452 30.7669 146.888 29.7198 146.888 28.4973V18.5426C146.888 17.333 146.452 16.2924 145.581 15.4206C144.722 14.5617 143.681 14.1322 142.459 14.1322ZM147.988 18.5426V28.4973C147.988 30.0254 147.446 31.3314 146.362 32.4155C145.288 33.49 143.987 34.0272 142.459 34.0272H136.929V13.0127H142.459C143.987 13.0127 145.288 13.5548 146.362 14.6389C147.446 15.7262 147.988 17.0274 147.988 18.5426ZM142.459 11.3673H135.264V35.692H142.459C144.437 35.692 146.127 34.9907 147.53 33.5881C148.945 32.1759 149.653 30.479 149.653 28.4973V18.5426C149.653 16.561 148.945 14.8705 147.53 13.4711C146.127 12.0686 144.437 11.3673 142.459 11.3673Z" fill="#3B8070"/>
</g>
<defs>
<clipPath id="clip0">
<rect width="150" height="47.0588" fill="white"/>
</clipPath>
</defs>
</svg>
